<?xml version="1.0" encoding="iso-8859-1"?>
<!-- Uploaded to: SVG Repo, www.svgrepo.com, Generator: SVG Repo Mixer Tools -->
<svg fill="#000000" height="800px" width="800px" version="1.1" id="Layer_1" xmlns="http://www.w3.org/2000/svg" xmlns:xlink="http://www.w3.org/1999/xlink" 
	 viewBox="0 0 512.003 512.003" xml:space="preserve">
<g>
	<g>
		<g>
			<path d="M451.799,116.688c-1.186-3.448-4.42-5.751-8.064-5.751c-96.435,0-164.727,166.903-187.733,302.336
				C232.996,277.84,164.704,110.937,68.268,110.937c-3.644,0-6.878,2.304-8.064,5.751C4.064,279.351,48.966,378.406,80.736,422.975
				c40.328,56.576,104.209,89.028,175.266,89.028s134.938-32.452,175.266-89.028C463.037,378.406,507.94,279.351,451.799,116.688z
				 M195.594,459.472c-1.365,3.294-4.54,5.282-7.893,5.282c-1.084,0-2.185-0.213-3.251-0.657
				c-30.549-12.621-56.09-33.126-75.921-60.937C68.516,347.02,57.764,266.807,78.252,177.292c1.05-4.599,5.623-7.484,10.214-6.417
				c4.591,1.05,7.467,5.623,6.417,10.223c-19.379,84.702-9.6,160.043,27.546,212.156c17.937,25.156,40.994,43.691,68.54,55.074
				C195.321,450.128,197.395,455.12,195.594,459.472z"/>
			<path d="M255.97,334.473c22.98-83.115,60.766-164.702,110.592-208.23C344,48.546,302.366,0,256.004,0
				C209.634,0,168,48.546,145.446,126.242C195.273,169.771,232.998,251.383,255.97,334.473z M178.598,134.127
				c11.324-38.494,27.682-68.941,46.046-85.734c3.473-3.191,8.875-2.944,12.058,0.538c3.183,3.473,2.935,8.875-0.538,12.049
				c-15.872,14.515-30.882,42.931-41.19,77.961c-1.092,3.721-4.497,6.135-8.183,6.135c-0.802,0-1.613-0.119-2.415-0.35
				C179.853,143.386,177.267,138.65,178.598,134.127z"/>
		</g>
	</g>
</g>
</svg>